<svg width="197" height="197" viewBox="0 0 197 197" fill="none" xmlns="http://www.w3.org/2000/svg">
<g opacity="0.6">
<path opacity="0.6" d="M65.3933 31.5091C65.4937 31.7395 65.6407 31.9468 65.825 32.1179C66.0092 32.2892 66.2267 32.4204 66.464 32.5036C66.7013 32.5868 66.9532 32.6201 67.2041 32.6016C67.4548 32.583 67.6991 32.5128 67.9214 32.3956C69.1801 31.8264 69.4537 30.8305 68.7423 29.2764L65.4589 22.064L67.3195 21.2212L70.6029 28.4227C71.7958 31.0384 70.986 33.0522 68.7205 34.081C68.2691 34.3312 67.7712 34.4861 67.2577 34.5363C66.744 34.5866 66.2256 34.531 65.7343 34.373C65.2431 34.2151 64.7894 33.9582 64.4013 33.618C64.0132 33.2779 63.6991 32.8618 63.478 32.3956L65.3933 31.5091Z" fill="#F10909"/>
<path opacity="0.6" d="M78.9418 30.2941C75.7898 31.1915 72.8567 29.2871 71.8607 25.8177C70.8648 22.3484 72.3642 19.1854 75.5052 18.288C78.6463 17.3906 81.6013 19.273 82.5972 22.7533C83.5932 26.2336 82.0829 29.3965 78.9418 30.2941ZM76.0087 20.0501C73.962 20.63 73.1522 22.7861 73.8198 25.2486C74.4873 27.7111 76.3588 29.1121 78.4055 28.532C80.4521 27.9519 81.2838 25.7849 80.5943 23.3224C79.9048 20.8599 78.0553 19.4591 76.0087 20.0501Z" fill="#F10909"/>
<path opacity="0.6" d="M85.0274 23.5746L84.2065 16.3512L86.2422 16.1214L87.0411 23.1259C87.3038 25.4352 88.3983 26.4093 90.2041 26.1903C92.01 25.9714 92.8636 24.8004 92.601 22.4911L91.8019 15.4867L93.8376 15.2568L94.6584 22.5021C95.0306 25.7854 93.2905 27.6898 90.412 27.9742C87.5336 28.2588 85.3666 26.8798 85.0274 23.5746Z" fill="#F10909"/>
<path opacity="0.6" d="M99.4193 22.4362L99.2332 27.3612L97.1866 27.2517L97.6572 15.2129L102.32 15.388C104.826 15.4865 106.391 16.8107 106.292 19.1747C106.303 19.6123 106.225 20.0475 106.065 20.4548C105.904 20.8621 105.664 21.2331 105.358 21.546C105.052 21.8591 104.687 22.1079 104.284 22.2777C103.88 22.4474 103.447 22.5349 103.009 22.5347L106.292 27.6567L103.972 27.5691L100.787 22.5347L99.4193 22.4362ZM99.485 20.7179L102.068 20.8164C103.425 20.8711 104.257 20.1707 104.257 19.0544C104.257 17.9381 103.556 17.1719 102.199 17.1172L99.5944 17.0187L99.485 20.7179Z" fill="#F10909"/>
<path opacity="0.6" d="M117.105 29.6598L115.562 29.3533L111.185 19.5033L109.477 28.1384L107.551 27.7555L109.893 15.8916L111.786 16.2747L115.88 25.6322L117.51 17.4019L119.437 17.785L117.105 29.6598Z" fill="#F10909"/>
<path opacity="0.6" d="M128.827 20.9587L128.893 33.9279L126.956 33.1837V29.6049L122.578 27.9741L120.29 30.6445L118.353 29.9113L126.956 20.2583L128.827 20.9587ZM123.869 26.5404L126.956 27.7115V22.9835L123.869 26.5404Z" fill="#F10909"/>
<path opacity="0.6" d="M135.864 24.0122L137.648 25.019L132.647 33.9279L137.724 36.7624L136.805 38.4041L129.943 34.5735L135.864 24.0122Z" fill="#F10909"/>
<path opacity="0.6" d="M151.22 45.5729C151.036 45.745 150.89 45.9526 150.79 46.1832C150.691 46.4137 150.639 46.6623 150.639 46.9137C150.639 47.1649 150.691 47.4135 150.79 47.6442C150.89 47.8747 151.036 48.0824 151.22 48.2543C152.16 49.2502 153.2 49.2065 154.437 48.0245L160.204 42.5522L161.606 44.0408L155.849 49.5129C153.758 51.4829 151.591 51.3735 149.884 49.5129C149.497 49.1663 149.184 48.7433 148.969 48.2706C148.752 47.7978 148.635 47.2854 148.626 46.7656C148.617 46.2456 148.715 45.7293 148.915 45.2492C149.115 44.769 149.41 44.3352 149.786 43.9751L151.22 45.5729Z" fill="#F10909"/>
<path opacity="0.6" d="M156.767 58.0058C154.896 55.3135 155.739 51.9206 158.705 49.8632C161.671 47.8056 165.14 48.1776 167.011 50.87C168.883 53.5623 168.107 56.9552 165.086 59.0237C162.065 61.0922 158.628 60.6982 156.767 58.0058ZM165.523 51.9097C164.308 50.1696 162 50.093 159.898 51.5595C157.797 53.0261 157.063 55.215 158.278 56.9552C159.493 58.6953 161.813 58.7938 163.915 57.3272C166.016 55.8606 166.728 53.628 165.513 51.9206L165.523 51.9097Z" fill="#F10909"/>
<path opacity="0.6" d="M165.086 61.5738L171.653 58.4546L172.527 60.3151L166.158 63.3357C164.056 64.3318 163.498 65.6888 164.276 67.3196C165.053 68.9502 166.465 69.3881 168.554 68.414L174.924 65.3824L175.811 67.2429L169.244 70.3621C166.256 71.7849 163.882 70.7452 162.677 68.1733C161.474 65.6012 162.076 63.0074 165.086 61.5738Z" fill="#F10909"/>
<path opacity="0.6" d="M170.821 74.8488L166.114 76.2388L165.535 74.2797L177.136 70.8433L178.46 75.3195C179.171 77.7163 178.46 79.6207 176.151 80.2993C175.744 80.447 175.312 80.5131 174.88 80.4934C174.447 80.4737 174.023 80.3689 173.632 80.1847C173.24 80.0007 172.889 79.741 172.598 79.4206C172.307 79.1003 172.082 78.7258 171.938 78.3182L168.15 83.101L167.493 80.9121L171.236 76.2935L170.821 74.8488ZM172.463 74.3673L173.196 76.8407C173.246 77.0987 173.349 77.3431 173.499 77.5582C173.65 77.7735 173.845 77.9544 174.071 78.0896C174.295 78.2248 174.546 78.311 174.807 78.3428C175.067 78.3744 175.333 78.3509 175.583 78.2737C175.834 78.1963 176.067 78.0671 176.264 77.8944C176.462 77.7216 176.621 77.5091 176.731 77.2707C176.842 77.0323 176.901 76.7734 176.905 76.5107C176.907 76.2482 176.856 75.9876 176.752 75.7463L176.019 73.3276L172.463 74.3673Z" fill="#F10909"/>
<path opacity="0.6" d="M169.639 93.9583L169.43 92.4042L177.366 85.1152L168.61 86.2096L168.392 84.2725L180.43 82.6855L180.682 84.6008L173.12 91.4849L181.447 90.3903L181.7 92.3386L169.639 93.9583Z" fill="#F10909"/>
<path opacity="0.6" d="M181.677 102.199L169.42 106.457L169.486 104.366L172.878 103.272L173.021 98.6534L169.738 97.3073L169.803 95.2388L181.677 100.229V102.199ZM174.794 99.3101L174.684 102.593L179.215 101.094L174.794 99.3101Z" fill="#F10909"/>
<path opacity="0.6" d="M181.053 109.839L180.682 111.852L170.58 110.025L169.551 115.738L167.745 115.42L169.147 107.683L181.053 109.839Z" fill="#F10909"/>
<path opacity="0.6" d="M165.599 131.333C165.38 131.213 165.137 131.139 164.888 131.117C164.637 131.094 164.385 131.123 164.147 131.202C163.909 131.281 163.69 131.408 163.502 131.576C163.316 131.743 163.165 131.948 163.061 132.177C162.415 133.391 162.798 134.365 164.308 135.153L171.302 138.863L170.35 140.68L163.346 136.958C160.806 135.612 160.227 133.523 161.386 131.333C161.59 130.856 161.891 130.425 162.269 130.068C162.646 129.711 163.094 129.436 163.582 129.26C164.071 129.083 164.59 129.009 165.108 129.042C165.627 129.075 166.134 129.214 166.596 129.451L165.599 131.333Z" fill="#F10909"/>
<path opacity="0.6" d="M155.608 140.592C157.555 137.966 161.08 137.681 163.947 139.827C166.814 141.971 167.602 145.386 165.655 148.023C163.707 150.662 160.182 150.968 157.304 148.811C154.426 146.656 153.66 143.229 155.608 140.592ZM164.177 146.929C165.447 145.222 164.779 143.011 162.71 141.456C160.642 139.903 158.333 139.936 157.085 141.653C155.837 143.373 156.472 145.593 158.54 147.126C160.609 148.659 162.919 148.636 164.167 146.929H164.177Z" fill="#F10909"/>
<path opacity="0.6" d="M154.897 149.621L159.964 154.831L158.497 156.254L153.584 151.197C151.963 149.533 150.498 149.447 149.205 150.705C147.914 151.963 147.947 153.43 149.566 155.082L154.481 160.15L153.014 161.573L147.937 156.342C145.626 153.978 145.846 151.394 147.937 149.381C150.026 147.366 152.577 147.235 154.897 149.621Z" fill="#F10909"/>
<path opacity="0.6" d="M144.171 159.34L141.337 155.345L143 154.152L150.005 164.002L146.196 166.705C144.161 168.15 142.113 168.063 140.724 166.126C140.452 165.788 140.248 165.402 140.126 164.987C140.004 164.571 139.966 164.136 140.012 163.706C140.059 163.276 140.19 162.86 140.399 162.48C140.608 162.101 140.889 161.766 141.227 161.496L135.481 159.461L137.375 158.115L142.956 160.161L144.171 159.34ZM145.167 160.741L143.055 162.229C142.833 162.363 142.642 162.542 142.494 162.753C142.344 162.965 142.242 163.205 142.191 163.459C142.139 163.712 142.141 163.975 142.196 164.227C142.251 164.48 142.357 164.718 142.51 164.928C142.661 165.137 142.855 165.313 143.078 165.444C143.3 165.574 143.549 165.658 143.806 165.689C144.062 165.719 144.324 165.695 144.57 165.62C144.819 165.544 145.047 165.418 145.244 165.25L147.356 163.762L145.167 160.741Z" fill="#F10909"/>
<path opacity="0.6" d="M125.73 164.429L127.142 163.729L136.609 168.862L132.679 160.971L134.452 160.095L139.837 170.93L138.107 171.794L129.145 166.869L132.876 174.388L131.115 175.264L125.73 164.429Z" fill="#F10909"/>
<path opacity="0.6" d="M121.811 178.394L113.822 168.205L115.814 167.604L118.003 170.438L122.435 169.092L122.643 165.535L124.624 164.933L123.672 177.858L121.811 178.394ZM122.326 170.953L119.163 171.916L122.041 175.714L122.326 170.953Z" fill="#F10909"/>
<path opacity="0.6" d="M114.369 180.31L112.344 180.606L110.845 170.448L105.088 171.302L104.826 169.486L112.596 168.336L114.369 180.31Z" fill="#F10909"/>
<path opacity="0.6" d="M89.0222 172.605C89.0724 172.354 89.0696 172.095 89.0143 171.846C88.959 171.596 88.8522 171.361 88.7008 171.155C88.5494 170.95 88.3567 170.777 88.135 170.651C87.9133 170.523 87.6676 170.443 87.4134 170.416C86.0454 170.208 85.2245 170.875 84.9947 172.605L83.7471 180.419L81.7223 180.101L82.97 172.277C83.4187 169.442 85.1589 168.205 87.6651 168.599C88.1894 168.635 88.7004 168.779 89.1653 169.025C89.6303 169.27 90.0388 169.609 90.3645 170.022C90.6904 170.434 90.9261 170.909 91.0569 171.419C91.1876 171.929 91.2103 172.459 91.1235 172.977L89.0222 172.605Z" fill="#F10909"/>
<path opacity="0.6" d="M77.049 166.147C80.1681 167.132 81.5691 170.339 80.4745 173.809C79.3801 177.278 76.3923 179.062 73.2731 178.077C70.154 177.092 68.7312 173.885 69.8256 170.415C70.92 166.947 73.9298 165.162 77.049 166.147ZM73.8313 176.304C75.8561 176.949 77.7385 175.603 78.5045 173.163C79.2707 170.723 78.5045 168.533 76.4908 167.887C74.4771 167.242 72.5727 168.589 71.7956 171.039C71.0185 173.491 71.8065 175.669 73.8313 176.304Z" fill="#F10909"/>
<path opacity="0.6" d="M68.2821 168.38L64.9988 174.848L63.1819 173.918L66.3887 167.647C67.4831 165.578 67.0673 164.167 65.4474 163.335C63.8277 162.503 62.4706 163.028 61.4089 165.096L58.2023 171.368L56.3745 170.438L59.6578 163.947C61.1682 161.004 63.6744 160.391 66.2245 161.704C68.7746 163.017 69.7924 165.414 68.2821 168.38Z" fill="#F10909"/>
<path opacity="0.6" d="M55.6411 161.365L58.5195 157.392L60.183 158.595L53.091 168.445L49.3043 165.71C47.2795 164.243 46.7104 162.273 48.0894 160.358C48.3202 159.99 48.6213 159.672 48.9757 159.423C49.33 159.172 49.7303 158.995 50.1537 158.9C50.577 158.806 51.0149 158.795 51.4421 158.871C51.8692 158.946 52.2771 159.106 52.6424 159.34L52.7298 153.244L54.6124 154.612L54.4591 160.565L55.6411 161.365ZM54.6342 162.755L52.5328 161.244C52.3398 161.062 52.1101 160.923 51.8588 160.835C51.6076 160.748 51.3407 160.715 51.076 160.74C50.8113 160.764 50.5547 160.844 50.3234 160.975C50.0921 161.107 49.8915 161.285 49.7348 161.501C49.578 161.715 49.4688 161.96 49.4145 162.22C49.3601 162.482 49.3618 162.75 49.4194 163.01C49.4771 163.27 49.5894 163.514 49.7487 163.725C49.9081 163.938 50.111 164.115 50.344 164.243L52.4343 165.753L54.6342 162.755Z" fill="#F10909"/>
<path opacity="0.6" d="M44.8725 145.561L45.9671 146.656L44.1502 157.261L50.3996 151.033L51.8004 152.423L43.2637 161.015L41.8957 159.646L43.6796 149.578L37.7587 155.531L36.3578 154.142L44.8725 145.561Z" fill="#F10909"/>
<path opacity="0.6" d="M30.3599 146.328L37.4519 135.481L38.6776 137.178L36.6858 140.143L39.3999 143.898L42.8474 142.946L44.0514 144.62L31.5199 147.904L30.3599 146.328ZM37.5723 144.401L35.6351 141.719L32.9756 145.682L37.5723 144.401Z" fill="#F10909"/>
<path opacity="0.6" d="M26.1793 139.881L25.238 138.054L34.3548 133.347L31.739 128.192L33.3588 127.35L36.9704 134.332L26.1793 139.881Z" fill="#F10909"/>
<path opacity="0.6" d="M25.2923 113.428C25.5375 113.389 25.7722 113.301 25.982 113.168C26.1918 113.035 26.3724 112.861 26.5127 112.656C26.653 112.451 26.7501 112.22 26.7981 111.976C26.8461 111.733 26.8439 111.482 26.7918 111.239C26.5619 109.882 25.6974 109.346 23.979 109.641L16.1757 110.966L15.8254 108.952L23.6398 107.617C26.4743 107.135 28.2145 108.438 28.6304 110.9C28.7607 111.403 28.7855 111.928 28.7036 112.441C28.6216 112.955 28.4346 113.446 28.1541 113.883C27.8736 114.321 27.5057 114.696 27.0736 114.985C26.6414 115.274 26.1543 115.47 25.6426 115.562L25.2923 113.428Z" fill="#F10909"/>
<path opacity="0.6" d="M27.58 99.9997C27.6456 103.283 25.0518 105.625 21.451 105.702C17.8504 105.778 15.1581 103.513 15.0924 100.23C15.0267 96.9462 17.5986 94.5822 21.2212 94.5165C24.8439 94.4509 27.5034 96.7273 27.58 99.9997ZM16.92 100.219C16.92 102.342 18.8463 103.688 21.4073 103.633C23.9683 103.579 25.785 102.167 25.785 100.033C25.785 97.8984 23.8698 96.5522 21.3088 96.607C18.7478 96.6616 16.8763 98.0954 16.92 100.219Z" fill="#F10909"/>
<path opacity="0.6" d="M22.6222 92.4148L15.4208 91.3204L15.7163 89.2956L22.6989 90.2915C24.9972 90.6309 26.212 89.81 26.4747 88.0151C26.7374 86.2202 25.7961 85.0929 23.4978 84.7318L16.5152 83.7359L16.7998 81.7002L24.0231 82.7946C27.3064 83.2652 28.6963 85.4432 28.2805 88.2669C27.8646 91.0905 25.9165 92.8853 22.6222 92.4148Z" fill="#F10909"/>
<path opacity="0.6" d="M25.1724 78.176L29.8675 79.6207L29.2655 81.5798L17.6973 78.0338L19.0654 73.5685C19.7986 71.1716 21.484 70.0005 23.7386 70.69C24.1608 70.7901 24.5589 70.9729 24.9101 71.2278C25.2613 71.4827 25.5584 71.8048 25.7842 72.1751C26.0101 72.5456 26.1605 72.9572 26.2263 73.386C26.2922 73.815 26.2725 74.2526 26.1683 74.6738L31.9578 72.7805L31.2794 74.9693L25.5992 76.7533L25.1724 78.176ZM23.5307 77.7055L24.2968 75.243C24.4079 75.0008 24.4659 74.7377 24.4672 74.4714C24.4684 74.205 24.4129 73.9414 24.3041 73.6983C24.1952 73.4551 24.0358 73.238 23.8364 73.0614C23.6369 72.8849 23.4021 72.7529 23.1476 72.6743C22.8931 72.5957 22.6248 72.5724 22.3605 72.6059C22.0963 72.6394 21.8421 72.7288 21.6153 72.8684C21.3884 73.0079 21.1939 73.1943 21.0448 73.4151C20.8958 73.6358 20.7954 73.8859 20.7508 74.1484L19.9956 76.6109L23.5307 77.7055Z" fill="#F10909"/>
<path opacity="0.6" d="M36.7081 62.8978L36.0186 64.3096L25.3806 65.9951L33.2934 69.8695L32.4289 71.6425L21.561 66.3235L22.4038 64.5723L32.5165 63.0291L24.9757 59.33L25.8403 57.5679L36.7081 62.8978Z" fill="#F10909"/>
<path opacity="0.6" d="M31.2788 49.4033L43.7774 52.6429L42.5626 54.3503L39.1151 53.409L36.4227 57.1848L38.4802 60.1946L37.2764 61.8691L30.1296 51.0669L31.2788 49.4033ZM35.4049 55.6197L37.331 52.9274L32.7235 51.6797L35.4049 55.6197Z" fill="#F10909"/>
<path opacity="0.6" d="M36.0288 43.3729L37.4406 41.9062L44.8719 49.0202L48.8666 44.8721L50.1909 46.1417L44.7187 51.811L36.0288 43.3729Z" fill="#F10909"/>
<path opacity="0.57" d="M28.3682 122.118C29.78 125.226 27.7224 130.666 27.7224 130.666C27.7224 130.666 22.2501 128.652 20.8602 125.544C19.4703 122.435 20.521 120.345 22.6004 119.393C24.6798 118.441 26.9563 119.01 28.3682 122.118Z" fill="#8E9373"/>
<path opacity="0.6" d="M23.1584 117.948C23.3259 120.316 23.9425 122.63 24.9752 124.767" stroke="#F10909" stroke-width="0.416667"/>
<path opacity="0.6" d="M28.2803 122.162C28.8627 123.897 28.9312 125.763 28.4773 127.536C28.3374 128.275 28.1546 129.006 27.93 129.725C27.8424 130.009 27.7658 130.228 27.7221 130.381V130.523H27.5797C27.4266 130.523 27.2077 130.37 26.945 130.25C26.2567 129.945 25.5845 129.606 24.9313 129.232C23.293 128.408 21.9283 127.127 21.0022 125.544C20.372 124.378 20.2152 123.014 20.5644 121.735C20.7466 121.243 21.0296 120.794 21.3953 120.417C21.7608 120.04 22.201 119.743 22.6876 119.546C23.157 119.307 23.6711 119.169 24.197 119.141C24.7228 119.113 25.2488 119.195 25.7411 119.382C26.911 119.951 27.8194 120.945 28.2803 122.162Z" stroke="#F10909" stroke-width="0.416667"/>
<path opacity="0.6" d="M26.3212 122.994C26.3212 122.994 24.778 121.67 23.8806 122.075C22.9832 122.479 23.1145 124.11 23.1145 124.11" stroke="#F10909" stroke-width="0.416667"/>
<path opacity="0.57" d="M57.4692 38.0321C55.0615 40.4946 49.25 40.4946 49.25 40.4946C49.25 40.4946 49.25 34.6831 51.6249 32.2644C53.9999 29.8456 56.3748 30.0754 57.9946 31.7281C59.6144 33.3807 59.888 35.6134 57.4692 38.0321Z" fill="#8E9373"/>
<path opacity="0.6" d="M59.5486 31.7388C57.4095 32.7302 55.4781 34.1193 53.8575 35.832" stroke="#F10909" stroke-width="0.416667"/>
<path opacity="0.6" d="M57.4036 37.9662C55.9859 39.1297 54.2586 39.8527 52.4348 40.0457C51.7107 40.1744 50.9799 40.2621 50.246 40.3084H49.5565H49.4032V40.1551C49.4032 39.9909 49.4032 39.7611 49.4032 39.4656C49.4362 38.7103 49.513 37.9575 49.633 37.211C49.831 35.3905 50.5491 33.6655 51.7015 32.2423C52.572 31.2409 53.795 30.6136 55.1162 30.4912C55.6443 30.4929 56.1662 30.6048 56.6486 30.8195C57.1311 31.0344 57.5633 31.3475 57.9179 31.7389C58.3014 32.0983 58.6049 32.5346 58.8086 33.0192C59.0122 33.5039 59.1115 34.026 59.0999 34.5515C58.9917 35.8647 58.3847 37.0866 57.4036 37.9662Z" stroke="#F10909" stroke-width="0.416667"/>
<path opacity="0.6" d="M55.9369 36.4339C55.9369 36.4339 56.6373 34.5187 55.9369 33.8181C55.2363 33.1177 53.7479 33.8181 53.7479 33.8181" stroke="#F10909" stroke-width="0.416667"/>
<path opacity="0.57" d="M144.325 40.024C141.512 38.0868 140.472 32.3629 140.472 32.3629C140.472 32.3629 146.185 31.2684 148.998 33.2275C151.811 35.1866 151.963 37.5067 150.672 39.3892C149.381 41.2717 147.137 41.9612 144.325 40.024Z" fill="#8E9373"/>
<path opacity="0.6" d="M150.945 40.921C149.586 38.9944 147.874 37.3419 145.901 36.0508" stroke="#F10909" stroke-width="0.416667"/>
<path opacity="0.6" d="M144.38 39.9366C142.983 38.7501 141.959 37.1837 141.435 35.4274C141.177 34.7103 140.957 33.9796 140.779 33.2386C140.713 32.9649 140.658 32.735 140.625 32.5709V32.4177H140.779L141.458 32.3192C142.209 32.2302 142.965 32.1791 143.723 32.166C145.544 32.0127 147.368 32.3929 148.977 33.2604C150.121 33.9335 150.96 35.0239 151.318 36.303C151.471 37.3484 151.222 38.413 150.625 39.2835C150.026 40.1541 149.12 40.7665 148.09 40.9981C146.762 41.1357 145.433 40.7553 144.38 39.9366Z" stroke="#F10909" stroke-width="0.416667"/>
<path opacity="0.6" d="M145.626 38.229C145.626 38.229 147.641 38.5573 148.199 37.7475C148.757 36.9376 147.805 35.5586 147.805 35.5586" stroke="#F10909" stroke-width="0.416667"/>
<path opacity="0.57" d="M168.544 123.672C169.18 120.312 174.017 117.105 174.017 117.105C174.017 117.105 177.3 121.888 176.676 125.248C176.052 128.608 173.951 129.692 171.718 129.265C169.486 128.838 167.953 127.01 168.544 123.672Z" fill="#8E9373"/>
<path opacity="0.6" d="M170.438 130.074C171.653 128.058 172.472 125.83 172.857 123.508" stroke="#F10909" stroke-width="0.416667"/>
<path opacity="0.6" d="M168.687 123.672C169.21 121.918 170.229 120.353 171.62 119.163C172.166 118.641 172.74 118.148 173.338 117.686L173.896 117.27L174.017 117.182L174.105 117.313L174.466 117.893C174.865 118.541 175.231 119.21 175.56 119.896C176.429 121.511 176.809 123.344 176.654 125.172C176.496 126.489 175.838 127.696 174.815 128.542C173.918 129.101 172.841 129.299 171.804 129.096C170.766 128.893 169.844 128.304 169.223 127.448C168.566 126.305 168.375 124.953 168.687 123.672Z" stroke="#F10909" stroke-width="0.416667"/>
<path opacity="0.6" d="M170.733 124.121C170.733 124.121 171.226 126.102 172.2 126.31C173.173 126.518 173.994 125.095 173.994 125.095" stroke="#F10909" stroke-width="0.416667"/>
<path opacity="0.57" d="M97.504 172.638C100.908 172.353 105.34 176.107 105.34 176.107C105.34 176.107 101.619 180.573 98.2154 180.868C94.8116 181.164 93.2028 179.489 93.0277 177.169C92.8527 174.848 94.1221 172.923 97.504 172.638Z" fill="#8E9373"/>
<path opacity="0.6" d="M91.8236 176.206C94.0983 176.834 96.4716 177.023 98.8171 176.764" stroke="#F10909" stroke-width="0.416667"/>
<path opacity="0.6" d="M97.5152 172.736C99.3451 172.769 101.127 173.327 102.648 174.345C103.302 174.73 103.934 175.15 104.542 175.603L105.078 176.02L105.198 176.118L105.067 176.206L104.607 176.709C104.086 177.258 103.534 177.777 102.955 178.263C101.637 179.538 99.974 180.398 98.1719 180.737C96.8629 180.941 95.5256 180.631 94.4398 179.872C93.6519 179.165 93.1626 178.184 93.0712 177.129C92.9796 176.075 93.2929 175.024 93.9473 174.192C94.905 173.266 96.183 172.744 97.5152 172.736Z" stroke="#F10909" stroke-width="0.416667"/>
<path opacity="0.6" d="M97.6357 174.86C97.6357 174.86 95.8736 175.878 95.9612 176.851C96.0486 177.825 97.6246 178.252 97.6246 178.252" stroke="#F10909" stroke-width="0.416667"/>
</g>
</svg>
