<svg width="151" height="24" viewBox="0 0 151 24" fill="none" xmlns="http://www.w3.org/2000/svg">
<g clip-path="url(#clip0_1_64)">
<path d="M12.2227 0L14.8814 8.2918H23.4852L16.5246 13.4164L19.1832 21.7082L12.2227 16.5836L5.26204 21.7082L7.92075 13.4164L0.960144 8.2918H9.56394L12.2227 0Z" fill="#F10909"/>
<path d="M43.8016 0L46.4603 8.2918H55.0641L48.1035 13.4164L50.7622 21.7082L43.8016 16.5836L36.841 21.7082L39.4997 13.4164L32.5391 8.2918H41.1428L43.8016 0Z" fill="#F10909"/>
<path d="M75.3806 0L78.0393 8.2918H86.6431L79.6825 13.4164L82.3412 21.7082L75.3806 16.5836L68.42 21.7082L71.0786 13.4164L64.118 8.2918H72.7218L75.3806 0Z" fill="#F10909"/>
<path d="M106.96 0L109.618 8.2918H118.222L111.261 13.4164L113.92 21.7082L106.96 16.5836L99.9994 21.7082L102.658 13.4164L95.697 8.2918H104.301L106.96 0Z" fill="#F10909"/>
<path d="M138.538 0L141.197 8.2918H149.801L142.84 13.4164L145.499 21.7082L138.538 16.5836L131.578 21.7082L134.237 13.4164L127.276 8.2918H135.88L138.538 0Z" fill="#F10909"/>
</g>
<defs>
<clipPath id="clip0_1_64">
<rect width="150" height="24" fill="white" transform="translate(0.380554)"/>
</clipPath>
</defs>
</svg>
